<svg width="41" height="41" viewBox="0 0 41 41" fill="none" xmlns="http://www.w3.org/2000/svg">
<g clip-path="url(#clip0_65_555)">
<path d="M27.6279 0.833496C25.4954 0.980995 23.0029 2.34599 21.5504 4.12348C20.2254 5.73597 19.1354 8.13095 19.5604 10.4584C21.8904 10.5309 24.2979 9.13345 25.6929 7.32596C26.9979 5.64347 27.9854 3.26348 27.6279 0.833496Z" fill="white"/>
<path d="M36.0553 14.2535C34.0078 11.686 31.1304 10.196 28.4129 10.196C24.8254 10.196 23.3079 11.9135 20.8154 11.9135C18.2454 11.9135 16.2929 10.201 13.1905 10.201C10.143 10.201 6.898 12.0635 4.84052 15.2485C1.94803 19.7335 2.44303 28.1659 7.1305 35.3484C8.80799 37.9184 11.048 40.8084 13.978 40.8334C16.5854 40.8584 17.3204 39.1609 20.8529 39.1434C24.3854 39.1234 25.0554 40.8559 27.6579 40.8284C30.5904 40.8059 32.9529 37.6034 34.6303 35.0334C35.8328 33.1909 36.2803 32.2634 37.2128 30.1834C30.4304 27.6009 29.3429 17.956 36.0553 14.2535Z" fill="white"/>
</g>
<defs>
<clipPath id="clip0_65_555">
<rect width="40" height="40" fill="white" transform="translate(0.129608 0.833496)"/>
</clipPath>
</defs>
</svg>
