<svg width="40" height="41" viewBox="0 0 40 41" fill="none" xmlns="http://www.w3.org/2000/svg">
<g clip-path="url(#clip0_65_522)">
<path d="M40 20.8335C40 30.8163 32.6859 39.0905 23.125 40.5905V26.6147H27.7852L28.6719 20.8335H23.125V17.0819C23.125 15.4999 23.9 13.9585 26.3844 13.9585H28.9062V9.03662C28.9062 9.03662 26.6172 8.646 24.4289 8.646C19.8609 8.646 16.875 11.4147 16.875 16.4272V20.8335H11.7969V26.6147H16.875V40.5905C7.31406 39.0905 0 30.8163 0 20.8335C0 9.78818 8.95469 0.833496 20 0.833496C31.0453 0.833496 40 9.78818 40 20.8335Z" fill="white"/>
<path d="M27.7852 26.6147L28.6719 20.8335H23.125V17.0819C23.125 15.5002 23.8998 13.9585 26.3843 13.9585H28.9062V9.03662C28.9062 9.03662 26.6175 8.646 24.4293 8.646C19.8609 8.646 16.875 11.4147 16.875 16.4272V20.8335H11.7969V26.6147H16.875V40.5905C17.8933 40.7502 18.9369 40.8335 20 40.8335C21.0631 40.8335 22.1067 40.7502 23.125 40.5905V26.6147H27.7852Z" fill="#1877F2"/>
</g>
<defs>
<clipPath id="clip0_65_522">
<rect width="40" height="40" fill="white" transform="translate(0 0.833496)"/>
</clipPath>
</defs>
</svg>
