<svg width="41" height="41" viewBox="0 0 41 41" fill="none" xmlns="http://www.w3.org/2000/svg">
<g clip-path="url(#clip0_65_551)">
<path d="M40.0905 12.5936C39.9968 10.4683 39.6531 9.00709 39.1607 7.74097C38.6528 6.39702 37.8714 5.19378 36.8477 4.19353C35.8474 3.1777 34.6362 2.38837 33.3078 1.88839C32.0344 1.39604 30.5809 1.05235 28.4555 0.958643C26.3143 0.856999 25.6345 0.833496 20.2038 0.833496C14.773 0.833496 14.0933 0.856999 11.96 0.950706C9.83463 1.04441 8.37347 1.38841 7.10766 1.88045C5.7634 2.38837 4.56016 3.16977 3.55991 4.19353C2.54408 5.19378 1.75505 6.40496 1.25477 7.73334C0.762424 9.00709 0.418729 10.4603 0.325021 12.5857C0.223378 14.7269 0.199875 15.4067 0.199875 20.8374C0.199875 26.2682 0.223378 26.9479 0.317085 29.0812C0.410793 31.2066 0.754793 32.6677 1.24714 33.9338C1.75505 35.2778 2.54408 36.481 3.55991 37.4813C4.56016 38.4971 5.77134 39.2864 7.09972 39.7864C8.37347 40.2788 9.82669 40.6225 11.9524 40.7162C14.0853 40.8102 14.7654 40.8334 20.1962 40.8334C25.6269 40.8334 26.3067 40.8102 28.44 40.7162C30.5653 40.6225 32.0265 40.2788 33.2923 39.7864C35.9805 38.7471 38.1058 36.6217 39.1452 33.9338C39.6372 32.6601 39.9812 31.2066 40.0749 29.0812C40.1686 26.9479 40.1921 26.2682 40.1921 20.8374C40.1921 15.4067 40.1842 14.7269 40.0905 12.5936ZM36.4884 28.9249C36.4023 30.8784 36.0742 31.9333 35.8007 32.6366C35.1286 34.3792 33.7456 35.7622 32.003 36.4343C31.2997 36.7078 30.2372 37.0359 28.2913 37.1217C26.1815 37.2157 25.5488 37.2389 20.2117 37.2389C14.8747 37.2389 14.234 37.2157 12.1318 37.1217C10.1783 37.0359 9.12343 36.7078 8.42017 36.4343C7.553 36.1138 6.76366 35.6059 6.12297 34.9417C5.45878 34.2931 4.95086 33.5117 4.63037 32.6445C4.35688 31.9413 4.02875 30.8784 3.94298 28.9329C3.84896 26.8231 3.82577 26.19 3.82577 20.853C3.82577 15.5159 3.84896 14.8752 3.94298 12.7734C4.02875 10.8199 4.35688 9.76499 4.63037 9.06173C4.95086 8.19425 5.45878 7.40521 6.1309 6.76422C6.77922 6.10003 7.56063 5.59212 8.42811 5.27192C9.13137 4.99843 10.1942 4.6703 12.1398 4.58423C14.2496 4.49052 14.8826 4.46702 20.2194 4.46702C25.5643 4.46702 26.1971 4.49052 28.2992 4.58423C30.2527 4.6703 31.3076 4.99843 32.0109 5.27192C32.8781 5.59212 33.6674 6.10003 34.3081 6.76422C34.9723 7.41284 35.4802 8.19425 35.8007 9.06173C36.0742 9.76499 36.4023 10.8275 36.4884 12.7734C36.5821 14.8832 36.6056 15.5159 36.6056 20.853C36.6056 26.19 36.5821 26.8151 36.4884 28.9249Z" fill="white"/>
<path d="M20.2038 10.562C14.531 10.562 9.92834 15.1644 9.92834 20.8375C9.92834 26.5106 14.531 31.1129 20.2038 31.1129C25.8769 31.1129 30.4792 26.5106 30.4792 20.8375C30.4792 15.1644 25.8769 10.562 20.2038 10.562ZM20.2038 27.5029C16.5236 27.5029 13.5384 24.518 13.5384 20.8375C13.5384 17.1569 16.5236 14.172 20.2038 14.172C23.8843 14.172 26.8692 17.1569 26.8692 20.8375C26.8692 24.518 23.8843 27.5029 20.2038 27.5029Z" fill="white"/>
<path d="M33.2846 10.1557C33.2846 11.4804 32.2105 12.5545 30.8855 12.5545C29.5608 12.5545 28.4866 11.4804 28.4866 10.1557C28.4866 8.83065 29.5608 7.75684 30.8855 7.75684C32.2105 7.75684 33.2846 8.83065 33.2846 10.1557Z" fill="white"/>
</g>
<defs>
<clipPath id="clip0_65_551">
<rect width="40" height="40" fill="white" transform="translate(0.129608 0.833496)"/>
</clipPath>
</defs>
</svg>
