<svg width="41" height="41" viewBox="0 0 41 41" fill="none" xmlns="http://www.w3.org/2000/svg">
<path d="M36.1216 36.8336V36.8324H36.1296V25.0964C36.1296 19.3552 34.8936 14.9324 28.1816 14.9324C24.9548 14.9324 22.7896 16.7032 21.9056 18.3816H21.8124V15.4684H15.4484V36.8324H22.0752V26.2536C22.0752 23.4684 22.6032 20.7748 26.0524 20.7748C29.4512 20.7748 29.5016 23.9536 29.5016 26.432V36.8336H36.1216Z" fill="white"/>
<path d="M4.65761 15.4695H11.2924V36.8335H4.65761V15.4695Z" fill="white"/>
<path d="M7.97241 4.8335C5.85081 4.8335 4.12961 6.5547 4.12961 8.6763C4.12961 10.7979 5.85081 12.5551 7.97241 12.5551C10.094 12.5551 11.8152 10.7979 11.8152 8.6763C11.8136 6.5547 10.0924 4.8335 7.97241 4.8335Z" fill="white"/>
</svg>
