<svg width="40" height="41" viewBox="0 0 40 41" fill="none" xmlns="http://www.w3.org/2000/svg">
<g clip-path="url(#clip0_65_520)">
<path d="M40 8.431C38.5125 9.0835 36.9275 9.516 35.275 9.726C36.975 8.711 38.2725 7.116 38.8825 5.1935C37.2975 6.1385 35.5475 6.806 33.6825 7.1785C32.1775 5.576 30.0325 4.5835 27.6925 4.5835C23.1525 4.5835 19.4975 8.2685 19.4975 12.786C19.4975 13.436 19.5525 14.061 19.6875 14.656C12.87 14.3235 6.8375 11.056 2.785 6.0785C2.0775 7.306 1.6625 8.711 1.6625 10.2235C1.6625 13.0635 3.125 15.581 5.305 17.0385C3.9875 17.0135 2.695 16.631 1.6 16.0285C1.6 16.0535 1.6 16.086 1.6 16.1185C1.6 20.1035 4.4425 23.4135 8.17 24.176C7.5025 24.3585 6.775 24.446 6.02 24.446C5.495 24.446 4.965 24.416 4.4675 24.306C5.53 27.5535 8.545 29.941 12.13 30.0185C9.34 32.201 5.7975 33.516 1.9625 33.516C1.29 33.516 0.645 33.486 0 33.4035C3.6325 35.746 7.9375 37.0835 12.58 37.0835C27.67 37.0835 35.92 24.5835 35.92 13.7485C35.92 13.386 35.9075 13.036 35.89 12.6885C37.5175 11.5335 38.885 10.091 40 8.431Z" fill="white"/>
</g>
<defs>
<clipPath id="clip0_65_520">
<rect width="40" height="40" fill="white" transform="translate(0 0.833496)"/>
</clipPath>
</defs>
</svg>
