<svg width="58" height="41" viewBox="0 0 58 41" fill="none" xmlns="http://www.w3.org/2000/svg">
<path d="M55.9526 7.09249C55.294 4.64512 53.3644 2.71599 50.9175 2.05696C46.4468 0.833496 28.5643 0.833496 28.5643 0.833496C28.5643 0.833496 10.6821 0.833496 6.21148 2.01033C3.81162 2.66891 1.83498 4.64555 1.17639 7.09249C0 11.5627 0 20.8335 0 20.8335C0 20.8335 0 30.1509 1.17639 34.5745C1.83542 37.0214 3.76455 38.951 6.21192 39.61C10.7292 40.8335 28.5647 40.8335 28.5647 40.8335C28.5647 40.8335 46.4468 40.8335 50.9175 39.6567C53.3649 38.9981 55.294 37.0685 55.953 34.6216C57.1294 30.1509 57.1294 20.8806 57.1294 20.8806C57.1294 20.8806 57.1765 11.5627 55.9526 7.09249Z" fill="white"/>
<path d="M22.8706 29.3982L37.7409 20.8335L22.8706 12.2688V29.3982Z" fill="#FF0000"/>
</svg>
